Jump_normalized_Precision Landing04_filtered_grf
version=1
nRows=22
nColumns=37
inDegrees=yes
endheader
time		1_ground_force_vx		1_ground_force_vy		1_ground_force_vz		1_ground_force_px		1_ground_force_py		1_ground_force_pz		1_ground_torque_x		1_ground_torque_y		1_ground_torque_z		2_ground_force_vx		2_ground_force_vy		2_ground_force_vz		2_ground_force_px		2_ground_force_py		2_ground_force_pz		2_ground_torque_x		2_ground_torque_y		2_ground_torque_z		3_ground_force_vx		3_ground_force_vy		3_ground_force_vz		3_ground_force_px		3_ground_force_py		3_ground_force_pz		3_ground_torque_x		3_ground_torque_y		3_ground_torque_z		4_ground_force_vx		4_ground_force_vy		4_ground_force_vz		4_ground_force_px		4_ground_force_py		4_ground_force_pz		4_ground_torque_x		4_ground_torque_y		4_ground_torque_z		
0.306167		-0.000000		-0.000000		-0.000000		-0.030732		0.000000		-0.003067		-0.000000		-0.000000		0.000000		-0.000000		-0.000000		-0.000000		-0.134152		0.000000		0.385921		-0.000000		0.000000		-0.000000		-27.170080		515.316795		36.976509		0.351869		1.254721		1.893258		1.369219		-25.969059		-1.863407		14.476339		489.571120		-13.782676		-0.289752		1.264069		1.903507		0.803253		27.165087		-0.764768		
0.309475		0.000000		-0.000000		-0.000000		-0.030732		0.000000		-0.003067		-0.000000		-0.000000		0.000000		-0.000000		-0.000000		-0.000000		-0.134152		0.000000		0.385921		-0.000000		0.000000		-0.000000		-27.566526		509.204241		33.498576		0.351787		1.254697		1.893226		1.390140		-25.678441		-1.689285		11.213993		485.264282		-15.429526		-0.289760		1.264080		1.903552		0.625045		27.047666		-0.860011		
0.312783		0.000000		-0.000000		-0.000000		-0.030732		0.000000		-0.003067		-0.000000		-0.000000		0.000000		-0.000000		-0.000000		-0.000000		-0.134152		0.000000		0.385921		-0.000000		0.000000		-0.000000		-28.100227		503.471511		30.113111		0.351703		1.254691		1.893231		1.417377		-25.395124		-1.518907		7.797856		481.214924		-17.249754		-0.289760		1.264086		1.903598		0.436713		26.950364		-0.966073		
0.316091		0.000000		0.000000		-0.000000		-0.030732		0.000000		-0.003067		-0.000000		-0.000000		0.000000		-0.000000		-0.000000		-0.000000		-0.134152		0.000000		0.385921		-0.000000		0.000000		-0.000000		-28.713610		498.203932		26.920442		0.351629		1.254708		1.893279		1.447998		-25.123919		-1.357571		4.252343		477.416021		-19.222362		-0.289753		1.264086		1.903644		0.239294		26.866176		-1.081724		
0.319399		0.000000		0.000000		-0.000000		-0.030732		0.000000		-0.003067		0.000000		-0.000000		-0.000000		-0.000000		0.000000		-0.000000		-0.134152		0.000000		0.385921		-0.000000		0.000000		0.000000		-29.344299		493.471679		23.948335		0.351572		1.254743		1.893358		1.478941		-24.870781		-1.206987		0.639775		473.853751		-21.298502		-0.289739		1.264084		1.903691		0.036167		26.789650		-1.204128		
0.322707		0.000000		0.000000		0.000000		-0.030732		0.000000		-0.003067		0.000000		0.000000		-0.000000		0.000000		0.000000		0.000000		-0.134152		0.000000		0.385921		0.000000		-0.000000		0.000000		-29.946969		489.289161		21.227581		0.351542		1.254790		1.893458		1.508175		-24.641350		-1.069054		-2.941437		470.512669		-23.418681		-0.289723		1.264082		1.903737		-0.167048		26.720189		-1.329938		
0.326015		-0.000000		0.000000		0.000000		-0.030732		0.000000		-0.003067		0.000000		0.000000		-0.000000		0.000000		0.000000		0.000000		-0.134152		0.000000		0.385921		0.000000		-0.000000		0.000000		-30.498356		485.620485		18.728102		0.351544		1.254839		1.893557		1.534929		-24.440441		-0.942553		-6.389867		467.386349		-25.539716		-0.289708		1.264080		1.903783		-0.364516		26.662443		-1.456934		
0.329323		-0.000000		0.000000		0.000000		-0.030732		0.000000		-0.003067		0.000000		0.000000		-0.000000		0.000000		0.000000		0.000000		-0.134152		0.000000		0.385921		0.000000		-0.000000		0.000000		-30.992068		482.415507		16.344956		0.351575		1.254882		1.893643		1.559384		-24.273014		-0.822406		-9.644607		464.488181		-27.649475		-0.289695		1.264081		1.903830		-0.552810		26.623335		-1.584804		
0.332631		-0.000000		-0.000000		0.000000		-0.030732		0.000000		-0.003067		0.000000		0.000000		0.000000		0.000000		0.000000		0.000000		-0.134152		0.000000		0.385921		0.000000		-0.000000		-0.000000		-31.425367		479.628480		13.934906		0.351627		1.254913		1.893710		1.581918		-24.143960		-0.701467		-12.728705		461.840753		-29.764194		-0.289683		1.264084		1.903878		-0.733304		26.606603		-1.714715		
0.335939		-0.000000		-0.000000		-0.000000		-0.030732		0.000000		-0.003067		-0.000000		0.000000		0.000000		0.000000		-0.000000		0.000000		-0.134152		0.000000		0.385921		0.000000		-0.000000		-0.000000		-31.785172		477.251514		11.316035		0.351690		1.254937		1.893765		1.602302		-24.058417		-0.570445		-15.742170		459.462045		-31.912117		-0.289671		1.264090		1.903928		-0.911711		26.609763		-1.848193		
0.339247		-0.000000		-0.000000		-0.000000		-0.030732		0.000000		-0.003067		-0.000000		-0.000000		0.000000		-0.000000		-0.000000		-0.000000		-0.134152		0.000000		0.385921		-0.000000		0.000000		-0.000000		-32.043408		475.310917		8.321382		0.351751		1.254959		1.893820		1.619292		-24.019512		-0.420513		-18.814767		457.338101		-34.111758		-0.289656		1.264095		1.903978		-1.095343		26.624811		-1.985885		
0.342556		0.000000		-0.000000		-0.000000		-0.030732		0.000000		-0.003067		-0.000000		-0.000000		0.000000		-0.000000		-0.000000		-0.000000		-0.134152		0.000000		0.385921		-0.000000		0.000000		-0.000000		-32.157847		473.844811		4.807030		0.351807		1.254989		1.893886		1.630569		-24.026376		-0.243739		-22.050764		455.400247		-36.362326		-0.289637		1.264098		1.904029		-1.290048		26.642485		-2.127323		
0.345864		0.000000		-0.000000		-0.000000		-0.030732		0.000000		-0.003067		-0.000000		-0.000000		0.000000		-0.000000		-0.000000		-0.000000		-0.134152		0.000000		0.385921		-0.000000		0.000000		-0.000000		-32.084081		472.884295		0.689877		0.351850		1.255032		1.893967		1.633491		-24.075883		-0.035120		-25.480698		453.525947		-38.642993		-0.289612		1.264097		1.904076		-1.497633		26.655992		-2.271245		
0.349172		0.000000		0.000000		-0.000000		-0.030732		0.000000		-0.003067		-0.000000		-0.000000		-0.000000		-0.000000		0.000000		-0.000000		-0.134152		0.000000		0.385921		-0.000000		0.000000		0.000000		-31.797637		472.421420		-4.014883		0.351882		1.255084		1.894059		1.626418		-24.163908		0.205364		-29.073975		451.545963		-40.930699		-0.289585		1.264094		1.904121		-1.716648		26.661056		-2.416713		
0.352480		0.000000		0.000000		0.000000		-0.030732		0.000000		-0.003067		0.000000		-0.000000		-0.000000		-0.000000		0.000000		-0.000000		-0.134152		0.000000		0.385921		-0.000000		0.000000		0.000000		-31.308245		472.411082		-9.207754		0.351904		1.255139		1.894153		1.609596		-24.287251		0.473383		-32.743442		449.273730		-43.204569		-0.289556		1.264091		1.904165		-1.942540		26.653636		-2.563157		
0.355788		0.000000		0.000000		0.000000		-0.030732		0.000000		-0.003067		0.000000		0.000000		-0.000000		0.000000		0.000000		0.000000		-0.134152		0.000000		0.385921		0.000000		-0.000000		0.000000		-30.657967		472.778747		-14.760886		0.351914		1.255185		1.894239		1.585029		-24.442868		0.763154		-36.385991		446.529997		-45.451171		-0.289531		1.264089		1.904207		-2.169755		26.627219		-2.710323		
0.359096		-0.000000		0.000000		0.000000		-0.030732		0.000000		-0.003067		0.000000		0.000000		-0.000000		0.000000		0.000000		0.000000		-0.134152		0.000000		0.385921		0.000000		-0.000000		0.000000		-29.908177		473.415643		-20.539134		0.351915		1.255218		1.894314		1.555658		-24.624489		1.068340		-39.902226		443.184567		-47.652041		-0.289507		1.264089		1.904253		-2.392507		26.572968		-2.857178		
0.362404		-0.000000		0.000000		0.000000		-0.030732		0.000000		-0.003067		0.000000		0.000000		-0.000000		0.000000		0.000000		0.000000		-0.134152		0.000000		0.385921		0.000000		-0.000000		0.000000		-29.122694		474.183059		-26.484589		0.351909		1.255234		1.894380		1.524393		-24.820561		1.386312		-43.211448		439.159178		-49.774599		-0.289484		1.264092		1.904304		-2.605654		26.481288		-3.001410		
0.365712		-0.000000		-0.000000		0.000000		-0.030732		0.000000		-0.003067		0.000000		0.000000		0.000000		0.000000		-0.000000		0.000000		-0.134152		0.000000		0.385921		0.000000		-0.000000		-0.000000		-28.368406		474.901124		-32.612697		0.351904		1.255238		1.894446		1.494149		-25.012808		1.717705		-46.266156		434.437133		-51.765272		-0.289456		1.264095		1.904361		-2.805706		26.345393		-3.139185		
0.369020		-0.000000		-0.000000		-0.000000		-0.030732		0.000000		-0.003067		-0.000000		-0.000000		0.000000		-0.000000		-0.000000		-0.000000		-0.134152		0.000000		0.385921		-0.000000		-0.000000		-0.000000		-27.715752		475.363656		-38.962616		0.351903		1.255242		1.894523		1.468063		-25.179326		2.063795		-49.038555		429.054758		-53.551257		-0.289422		1.264100		1.904423		-2.990302		26.163146		-3.265480		
0.372328		-0.000000		-0.000000		-0.000000		-0.030732		0.000000		-0.003067		-0.000000		-0.000000		0.000000		-0.000000		-0.000000		-0.000000		-0.134152		0.000000		0.385921		-0.000000		0.000000		-0.000000		-27.243521		475.360848		-45.559923		0.351911		1.255255		1.894620		1.449926		-25.299162		2.424751		-51.538935		423.066075		-55.065266		-0.289380		1.264105		1.904491		-3.159426		25.934644		-3.375595		
0.375636		0.000000		-0.000000		-0.000000		-0.030732		0.000000		-0.003067		-0.000000		-0.000000		0.000000		-0.000000		-0.000000		-0.000000		-0.134152		0.000000		0.385921		-0.000000		0.000000		-0.000000		-27.020358		474.730607		-52.364548		0.351928		1.255287		1.894741		1.443323		-25.358276		2.797117		-53.797362		416.532458		-56.266668		-0.289334		1.264111		1.904562		-3.314272		25.661113		-3.466396		
